<svg width="345" height="62" viewBox="0 0 345 62" fill="none" xmlns="http://www.w3.org/2000/svg">
 <rect width="345" height="62" fill="white"/>
<path d="M60.4446 41.7382C60.5755 42.7948 60.641 43.7955 60.641 44.7544C60.641 49.7628 59.0188 53.8869 55.7792 57.1312C52.5348 60.3755 48.4163 61.9999 43.4236 61.9999C38.3935 61.9999 34.1535 60.3382 30.6941 57.0101C27.2348 53.682 25.5098 49.5813 25.5098 44.7078C25.5098 39.867 27.2207 35.7709 30.6474 32.4288C34.0693 29.0868 38.2814 27.4158 43.2787 27.4158C47.084 27.4158 50.4592 28.2815 53.4044 30.0084C56.3495 31.74 58.383 34.1837 59.5097 37.3442L51.6186 39.6156C49.9964 36.4551 47.2196 34.8725 43.2834 34.8725C40.572 34.8725 38.3047 35.8128 36.4862 37.6886C34.6677 39.5644 33.7561 41.9057 33.7561 44.7032C33.7561 47.5053 34.6911 49.8513 36.561 51.7457C38.4309 53.6402 40.7543 54.585 43.5358 54.585C45.6862 54.585 47.5328 54.0591 49.0708 53.0025C50.6088 51.9505 51.6934 50.4983 52.3198 48.655H42.1287V41.7382H60.4446Z" fill="#F8434E"/>
<path d="M85.8513 61.2551L75.8285 49.8884H73.4444V61.2551H65.2588V28.1511H82.0834C85.6877 28.1511 88.5861 29.1472 90.7692 31.1394C92.9524 33.1316 94.0463 35.7429 94.0463 38.9732C94.0463 41.6729 93.2702 43.9537 91.7135 45.8156C90.1568 47.6774 88.0251 48.9016 85.3137 49.4974L95.7339 61.2551H85.8513ZM81.1859 43.074C82.6397 43.074 83.8084 42.7109 84.6826 41.9848C85.5568 41.2586 85.9962 40.2905 85.9962 39.071C85.9962 37.884 85.5568 36.9298 84.6826 36.2037C83.8038 35.4776 82.6397 35.1191 81.1859 35.1191H73.4444V43.074H81.1859Z" fill="#F8434E"/>
<path d="M105.205 61.2551H96.4214L110.315 28.1511H118.702L132.595 61.2551H123.863L114.532 37.9538L105.205 61.2551Z" fill="#F8434E"/>
<path d="M148.63 28.1511C154.09 28.1511 158.489 29.6732 161.831 32.722C165.174 35.7708 166.843 39.7645 166.843 44.7031C166.843 49.6417 165.174 53.6401 161.831 56.6842C158.489 59.733 154.09 61.2551 148.63 61.2551H135.479V28.1511H148.63ZM148.331 54.1893C151.439 54.1893 153.931 53.3235 155.801 51.5967C157.671 49.8651 158.606 47.5704 158.606 44.7031C158.606 41.8358 157.671 39.5411 155.801 37.8095C153.931 36.078 151.444 35.2169 148.331 35.2169H143.665V54.1893H148.331Z" fill="#F8434E"/>
<path d="M194.682 29.9529C197.132 31.6472 198.67 33.9978 199.296 36.9954L191.255 38.6245C190.956 37.1443 190.264 35.9993 189.17 35.1894C188.076 34.3841 186.838 33.9792 185.449 33.9792C184.126 33.9792 183.051 34.3003 182.224 34.9427C181.396 35.585 180.985 36.3856 180.985 37.3398C180.985 38.7874 181.878 39.7137 183.663 40.1047L190.563 41.6361C196.65 42.9859 199.693 46.1977 199.693 51.2712C199.693 54.6645 198.384 57.299 195.771 59.1749C193.158 61.0507 189.9 61.9909 185.996 61.9909C182.125 61.9909 178.844 61.1112 176.146 59.3471C173.449 57.583 171.888 55.1206 171.458 51.9601L179.896 50.331C180.69 53.5939 182.873 55.223 186.445 55.223C187.969 55.223 189.166 54.9112 190.045 54.2828C190.923 53.6591 191.358 52.8352 191.358 51.8112C191.358 51.0199 191.134 50.3962 190.69 49.9353C190.241 49.4745 189.442 49.1301 188.282 48.8974L181.335 47.4172C175.38 46.0673 172.402 42.8696 172.402 37.8332C172.402 34.6401 173.608 32.1033 176.025 30.2228C178.442 28.347 181.616 27.4068 185.552 27.4068C189.189 27.4114 192.232 28.2586 194.682 29.9529Z" fill="#0E134A"/>
<path d="M234.875 61.2551H226.737V48.1615H212.745V61.2551H204.555V28.1511H212.745V41.0492H226.737V28.1511H234.875V61.2551Z" fill="#0E134A"/>
<path d="M246.591 61.2551H237.807L251.7 28.1511H260.087L273.98 61.2551H265.248L255.917 37.9538L246.591 61.2551Z" fill="#0E134A"/>
<path d="M308.873 48.8552C308.111 52.942 306.208 56.1537 303.165 58.4903C300.122 60.827 296.433 61.9999 292.1 61.9999C287.172 61.9999 282.993 60.3382 279.571 57.0101C276.145 53.682 274.434 49.5813 274.434 44.7078C274.434 39.867 276.145 35.7709 279.571 32.4288C282.993 29.0868 287.172 27.4158 292.1 27.4158C296.27 27.4158 299.897 28.5701 302.992 30.8742C306.087 33.1782 308.027 36.2596 308.821 40.1137L300.781 41.9895C300.285 39.6529 299.266 37.8795 297.728 36.6786C296.19 35.4776 294.311 34.8772 292.095 34.8772C289.449 34.8772 287.205 35.8174 285.373 37.6933C283.535 39.5691 282.619 41.9104 282.619 44.7078C282.619 47.51 283.535 49.8559 285.373 51.7504C287.21 53.6448 289.449 54.5897 292.095 54.5897C294.278 54.5897 296.139 53.9706 297.677 52.7371C299.215 51.5037 300.267 49.6837 300.828 47.2772L308.873 48.8552Z" fill="#0E134A"/>
<path d="M334.281 61.2551L323.412 48.8039H321.673V61.2551H313.482V28.1511H321.673V41.2959H322.865L334.178 28.1511H344.004L329.863 44.7543L345 61.2551H334.281Z" fill="#0E134A"/>
<path d="M53.661 22.5051L52.1651 17.3663L50.1082 10.3564C50.1082 10.3564 36.3455 11.2594 26.3461 17.2686C26.3461 17.2686 35.7378 8.33628 51.1974 8.73658L53.432 16.3516L58.9155 11.9669L56.2135 2.7693L30.7358 0.0137362C30.128 -0.0514291 29.5484 0.116139 29.0715 0.497821L0.139137 23.6362C-0.136677 23.8549 0.0269417 24.4042 0.372878 24.4414L20.4231 26.6757L22.0032 32.0611C21.3207 34.0719 20.9701 36.227 20.9701 38.5218C20.9701 39.4201 21.0262 40.2906 21.1337 41.147C21.4516 39.0617 22.05 37.0928 22.9382 35.2495C24.0087 33.0246 25.4953 30.9812 27.3933 29.1333C31.6988 24.9302 37.0374 22.7983 43.2689 22.7983C47.3734 22.7983 51.1366 23.6594 54.4838 25.3491C54.9092 25.5632 55.3346 25.7913 55.746 26.0333C56.7978 26.6524 57.7562 27.3459 58.6397 28.1093C57.443 25.8751 55.7787 23.9946 53.661 22.5051Z" fill="#0E134A"/>
<path d="M67.8676 4.80353C68.1388 4.58476 67.9798 4.03551 67.6339 3.99827L57.2324 2.87184L59.7147 11.3247L59.7288 11.3154L61.0097 15.6722C60.5048 15.984 60.1635 16.5379 60.1635 17.1756C60.1635 18.0507 60.7993 18.7722 61.6361 18.9165L62.1784 25.9776L66.7831 24.6371L63.1601 18.465C63.506 18.1391 63.7257 17.683 63.7257 17.1756C63.7257 16.1981 62.9263 15.4022 61.9446 15.4022C61.9353 15.4022 61.9259 15.4069 61.9166 15.4069L60.5282 10.6777L67.8676 4.80353Z" fill="#0E134A"/>
</svg>
